<?xml version="1.0" encoding="UTF-8" standalone="no"?>
<!-- Created with Inkscape (http://www.inkscape.org/) -->

<svg
   xmlns:dc="http://purl.org/dc/elements/1.1/"
   xmlns:cc="http://creativecommons.org/ns#"
   xmlns:rdf="http://www.w3.org/1999/02/22-rdf-syntax-ns#"
   xmlns:svg="http://www.w3.org/2000/svg"
   xmlns="http://www.w3.org/2000/svg"
   xmlns:sodipodi="http://sodipodi.sourceforge.net/DTD/sodipodi-0.dtd"
   xmlns:inkscape="http://www.inkscape.org/namespaces/inkscape"
   id="svg2"
   viewBox="0 0 369.49509 336.15557"
   version="1.0"
   inkscape:version="0.92.4 5da689c313, 2019-01-14"
   sodipodi:docname="flat-lemmling-Cartoon-penguin.svg"
   width="369.49509"
   height="336.15558">
  <sodipodi:namedview
     pagecolor="#ffffff"
     bordercolor="#666666"
     borderopacity="1"
     objecttolerance="10"
     gridtolerance="10"
     guidetolerance="10"
     inkscape:pageopacity="0"
     inkscape:pageshadow="2"
     inkscape:window-width="1920"
     inkscape:window-height="1050"
     id="namedview24"
     showgrid="false"
     fit-margin-top="0"
     fit-margin-left="0"
     fit-margin-right="0"
     fit-margin-bottom="0"
     inkscape:zoom="0.63766549"
     inkscape:cx="183.17431"
     inkscape:cy="166.77999"
     inkscape:window-x="0"
     inkscape:window-y="0"
     inkscape:window-maximized="1"
     inkscape:current-layer="svg2" />
  <defs
     id="defs4">
    <linearGradient
       id="linearGradient3211"
       y2="537.40997"
       gradientUnits="userSpaceOnUse"
       x2="352.31"
       gradientTransform="translate(-167.52356,-581.47797)"
       y1="537.40997"
       x1="351.79001">
      <stop
         id="stop4100"
         style="stop-color:#ffb142"
         offset="0" />
      <stop
         id="stop4104"
         style="stop-color:#c87600"
         offset="1" />
    </linearGradient>
  </defs>
  <g
     id="g4626"
     transform="translate(-3.1089018,213.28577)">
    <path
       id="path2385"
       d="m 349.31644,-45.20797 a 165.565,165.565 0 1 1 -331.129999,0 165.565,165.565 0 1 1 331.129999,0 z"
       style="fill:#1c1c1c;stroke:#080808;stroke-width:5;stroke-linecap:round"
       inkscape:connector-curvature="0" />
    <path
       id="path2387"
       d="m 149.75644,-155.38797 c -22.935,0 -41.562,21.434 -41.562,47.844 0,26.41 18.628,47.844 41.562,47.844 13.478,0 25.439,-7.4105 33.031,-18.875 7.5922,11.473 19.579,18.875 33.062,18.875 22.935,0 41.562,-21.434 41.562,-47.844 0,-26.41 -18.628,-47.844 -41.562,-47.844 -13.482,0 -25.47,7.4045 -33.062,18.875 -7.5928,-11.462 -19.555,-18.875 -33.031,-18.875 z"
       style="fill:#ffffff;stroke:#080808;stroke-width:5;stroke-linecap:round"
       inkscape:connector-curvature="0" />
    <path
       id="path3167"
       d="m 265.57082,37.54659 a 80.261439,80.261439 0 1 1 -160.52061,0 80.261439,80.261439 0 1 1 160.52061,0 z"
       style="fill:#ffffff;stroke:#080808;stroke-width:4.99989271;stroke-linecap:round"
       inkscape:connector-curvature="0" />
    <path
       id="path3393"
       d="m 184.77644,-72.86797 c -14.479,0 -30.217,13.186 -29.588,21.514 0.62952,8.3281 25.81,43.029 31.476,43.029 5.6657,0 27.699,-34.006 27.069,-43.723 -0.62952,-9.7161 -19.515,-21.514 -28.958,-20.82 z"
       style="fill:#000000;fill-opacity:0.31373004;fill-rule:evenodd"
       inkscape:connector-curvature="0" />
    <path
       id="path2391"
       d="m 182.48644,-81.20797 c -14.479,0 -30.217,11.961 -29.588,19.515 0.62952,7.5543 25.81,39.03 31.476,39.03 5.6657,0 27.699,-30.847 27.069,-39.66 -0.62952,-8.8133 -19.515,-19.515 -28.958,-18.886 z"
       style="fill:url(#linearGradient3211);fill-rule:evenodd;stroke:#080808;stroke-width:5"
       inkscape:connector-curvature="0" />
    <path
       id="path3163"
       d="m 175.52374,-121.10797 a 10.387,10.387 0 1 1 -20.774,0 10.387,10.387 0 1 1 20.774,0 z"
       style="fill:#000000;stroke:#000000;stroke-width:5;stroke-linecap:round"
       inkscape:connector-curvature="0" />
    <path
       id="path3165"
       d="m 244.70644,-119.10797 a 10.387,10.387 0 1 1 -20.774,0 10.387,10.387 0 1 1 20.774,0 z"
       style="fill:#000000;stroke:#000000;stroke-width:5;stroke-linecap:round"
       inkscape:connector-curvature="0" />
    <path
       id="path3169"
       d="m 58.876441,-82.22797 c 48.110999,17.3 -14.163,94.143 37.819,161.19 9.608399,12.393 -57.868,2.0908 -81.723,-66.585 -23.198,-66.786 -1.1324,-107.54 43.904,-94.607 z"
       style="fill:#ffffff;fill-rule:evenodd;stroke:#000000;stroke-width:5"
       inkscape:connector-curvature="0" />
    <path
       id="path3793"
       d="m 58.876441,-82.22797 c 48.110999,17.3 -42.588,102.12 37.819,161.19 22.625999,16.622 -57.868,2.0908 -81.723,-66.585 -23.198,-66.786 -1.1324,-107.54 43.904,-94.607 z"
       style="fill:#1c1c1c;fill-rule:evenodd;stroke:#080808;stroke-width:5"
       inkscape:connector-curvature="0" />
    <path
       id="path3800"
       d="m 316.83644,-82.22797 c -48.111,17.3 14.163,94.143 -37.819,161.19 -9.6084,12.393 57.868,2.0908 81.723,-66.585 23.198,-66.786 1.1324,-107.54 -43.904,-94.607 z"
       style="fill:#ffffff;fill-rule:evenodd;stroke:#000000;stroke-width:5"
       inkscape:connector-curvature="0" />
    <path
       id="path3802"
       d="m 316.83644,-82.22797 c -48.111,17.3 42.588,102.12 -37.819,161.19 -22.626,16.622 57.868,2.0908 81.723,-66.585 23.198,-66.786 1.1324,-107.54 -43.904,-94.607 z"
       style="fill:#1c1c1c;fill-rule:evenodd;stroke:#080808;stroke-width:5"
       inkscape:connector-curvature="0" />
  </g>
  <metadata
     id="metadata21">
    <rdf:RDF>
      <cc:Work>
        <dc:format>image/svg+xml</dc:format>
        <dc:type
           rdf:resource="http://purl.org/dc/dcmitype/StillImage" />
        <cc:license
           rdf:resource="http://creativecommons.org/publicdomain/zero/1.0/" />
        <dc:publisher>
          <cc:Agent
             rdf:about="http://openclipart.org/">
            <dc:title>Openclipart</dc:title>
          </cc:Agent>
        </dc:publisher>
        <dc:title>Cute round cartoon penguin (flat colors)</dc:title>
        <dc:date>2010-05-19T15:24:42</dc:date>
        <dc:description>I don't like gradients but I like penguins, so there you go :)</dc:description>
        <dc:source>https://openclipart.org/detail/61207/cute-round-cartoon-penguin-by-qubodup</dc:source>
        <dc:creator>
          <cc:Agent>
            <dc:title>qubodup</dc:title>
          </cc:Agent>
        </dc:creator>
        <dc:subject>
          <rdf:Bag>
            <rdf:li>animal</rdf:li>
            <rdf:li>bird</rdf:li>
            <rdf:li>cartoon</rdf:li>
            <rdf:li>color</rdf:li>
            <rdf:li>colour</rdf:li>
            <rdf:li>penguin</rdf:li>
            <rdf:li>tux</rdf:li>
          </rdf:Bag>
        </dc:subject>
      </cc:Work>
      <cc:License
         rdf:about="http://creativecommons.org/publicdomain/zero/1.0/">
        <cc:permits
           rdf:resource="http://creativecommons.org/ns#Reproduction" />
        <cc:permits
           rdf:resource="http://creativecommons.org/ns#Distribution" />
        <cc:permits
           rdf:resource="http://creativecommons.org/ns#DerivativeWorks" />
      </cc:License>
    </rdf:RDF>
  </metadata>
</svg>
